<svg xmlns="http://www.w3.org/2000/svg" xmlns:xlink="http://www.w3.org/1999/xlink" viewBox="0 0 85 85"><defs><style>.cls-1{fill:none;}.cls-2{clip-path:url(#clip-path);}.cls-3{fill:#6868ab;}.cls-4{opacity:0.2;isolation:isolate;}.cls-5{fill:#d0cdd9;}.cls-6{fill:#2f2e41;}</style><clipPath id="clip-path"><rect class="cls-1" width="85" height="85"/></clipPath></defs><g id="Layer_2" data-name="Layer 2"><g id="Layer_2-2" data-name="Layer 2"><g class="cls-2"><path class="cls-3" d="M85,42.5a42.45,42.45,0,0,1-3.42,16.74l-.14.32a42.57,42.57,0,0,1-46.31,24.8l-.77-.14A42.15,42.15,0,0,1,26.67,82l-1.2-.5-.81-.37A42.5,42.5,0,1,1,85,42.5Z"/><path class="cls-4" d="M35.13,84.36l-.77-.14a174.39,174.39,0,0,0-2.68-25.06A92.74,92.74,0,0,0,27.1,42.49a51.83,51.83,0,0,0-2.4-5.26,27.25,27.25,0,0,0-7.61-9.41l.44-.62A26.3,26.3,0,0,1,24.35,35q.91,1.5,1.74,3.21c.6,1.22,1.17,2.51,1.71,3.88.35.87.68,1.77,1,2.7a98.19,98.19,0,0,1,3.57,13.83q.33,1.71.63,3.51A179.33,179.33,0,0,1,35.13,84.36Z"/><path class="cls-4" d="M25.47,81.45l-.81-.37A61.73,61.73,0,0,0,23,71.33a32.89,32.89,0,0,0-1.48-4.43,13.38,13.38,0,0,0-4-5.6l.45-.61a14.08,14.08,0,0,1,4.18,5.73,39.74,39.74,0,0,1,2.5,8.82C25.07,77.47,25.32,79.62,25.47,81.45Z"/><path class="cls-4" d="M12.86,27.8A3.79,3.79,0,1,0,9.08,24,3.79,3.79,0,0,0,12.86,27.8Z"/><path class="cls-4" d="M14.08,60.37a3.79,3.79,0,1,0-3.79-3.79A3.79,3.79,0,0,0,14.08,60.37Z"/><path class="cls-4" d="M27.88,30.37a16.79,16.79,0,0,0,1,8.62,16.79,16.79,0,0,0,3.87-7.76,16.84,16.84,0,0,0-1-8.63A16.79,16.79,0,0,0,27.88,30.37Z"/><path class="cls-4" d="M15.3,41.11a16.92,16.92,0,0,0,8.66.57,16.89,16.89,0,0,0-7-5.15A16.88,16.88,0,0,0,8.33,36,16.9,16.9,0,0,0,15.3,41.11Z"/><path class="cls-4" d="M14.57,70a11.76,11.76,0,0,0,6.07.39,11.72,11.72,0,0,0-4.88-3.62,11.76,11.76,0,0,0-6.07-.39A11.72,11.72,0,0,0,14.57,70Z"/><path class="cls-5" d="M42.41,51.91A16.57,16.57,0,1,0,25.84,35.34,16.57,16.57,0,0,0,42.41,51.91Z"/><path class="cls-5" d="M35.94,48S38,57.87,38,58.9s9.84,5.7,9.84,5.7L56.65,63l3.11-9.32S54.58,46,54.58,42.85Z"/><path class="cls-6" d="M81.58,59.24l-.14.32a42.57,42.57,0,0,1-46.31,24.8l-.77-.14A42.15,42.15,0,0,1,26.67,82l-1.2-.5-.81-.37a42.3,42.3,0,0,1-6.95-4l-2-5.7,1.1-.84,2.27-1.74,2.43-1.85.63-.48,9.5-7.26.7-.53,4.95-3.77h0S42.67,63.56,50.44,61A10.73,10.73,0,0,0,58,51Z"/><path class="cls-6" d="M28,22S33.3,10.6,43.39,13.23,59.17,19.8,59.61,23.75a56.07,56.07,0,0,1-.22,9.86s-1.1-8.11-8.11-6.36-18,.44-18,.44L31.55,43.47s-2-2.85-4.16-1.09S21,25.5,28,22Z"/><path class="cls-6" d="M26.67,82l-1.2-.5-.81-.37a42.4,42.4,0,0,1-11-7.38,14.67,14.67,0,0,1,2.1-2.37h7.76l1.17,3.91Z"/><path class="cls-6" d="M74.77,58.38l6.67,1.18A42.67,42.67,0,0,1,74.3,70.7Z"/></g></g></g></svg>